HIERARCHY
ROOT Pelvis
{
	OFFSET 0.000000 0.000000 0.000000
	CHANNELS 6 Xposition Yposition Zposition Xrotation Yrotation Zrotation
	JOINT LeftUpLeg_virtual
	{
		OFFSET 0.000000 0.000000 0.000000
		CHANNELS 3 Xrotation Yrotation Zrotation
		JOINT LeftUpLeg
		{
			OFFSET 18.735201 -5.666702 -4.541200
			CHANNELS 3 Xrotation Yrotation Zrotation
			JOINT LeftLeg
			{
				OFFSET -0.021200 -31.938179 0.493100
				CHANNELS 3 Xrotation Yrotation Zrotation
				JOINT LeftFoot
				{
					OFFSET 0.021200 -31.938179 -4.336299
					CHANNELS 3 Xrotation Yrotation Zrotation
					JOINT LeftToeBase
					{
						OFFSET 0.943001 -26.722000 15.023500
						CHANNELS 3 Xrotation Yrotation Zrotation
						End Site
						{
							OFFSET 0 0 0
						}
					}
				}
			}
		}
	}
	JOINT RightUpLeg_virtual
	{
		OFFSET 0.000000 0.000000 0.000000
		CHANNELS 3 Xrotation Yrotation Zrotation
		JOINT RightUpLeg
		{
			OFFSET -18.735201 -5.666702 -4.541200
			CHANNELS 3 Xrotation Yrotation Zrotation
			JOINT RightLeg
			{
				OFFSET 0.018946 -31.938133 0.493100
				CHANNELS 3 Xrotation Yrotation Zrotation
				JOINT RightFoot
				{
					OFFSET -0.018946 -31.938126 -4.336299
					CHANNELS 3 Xrotation Yrotation Zrotation
					JOINT RightToeBase
					{
						OFFSET -0.943001 -26.722004 15.023500
						CHANNELS 3 Xrotation Yrotation Zrotation
						End Site
						{
							OFFSET 0 0 0
						}
					}
				}
			}
		}
	}
	JOINT Hips_virtual
	{
		OFFSET 0.000000 0.000000 0.000000
		CHANNELS 3 Xrotation Yrotation Zrotation
		JOINT Hips
		{
			OFFSET -0.000000 -0.000000 -0.000000
			CHANNELS 3 Xrotation Yrotation Zrotation
			JOINT Spine
			{
				OFFSET 0.000000 10.199997 -0.299500
				CHANNELS 3 Xrotation Yrotation Zrotation
				JOINT Spine1
				{
					OFFSET 0.000000 11.900002 -1.516600
					CHANNELS 3 Xrotation Yrotation Zrotation
					JOINT Spine2
					{
						OFFSET 0.000000 13.600006 -2.842500
						CHANNELS 3 Xrotation Yrotation Zrotation
						JOINT Neck_virtual
						{
							OFFSET 0.000000 0.000000 0.000000
							CHANNELS 3 Xrotation Yrotation Zrotation
							JOINT Neck
							{
								OFFSET 0.000000 9.624100 -2.890100
								CHANNELS 3 Xrotation Yrotation Zrotation
								JOINT Head
								{
									OFFSET 0.000000 14.068802 -1.351900
									CHANNELS 3 Xrotation Yrotation Zrotation
									End Site
									{
										OFFSET 0 0 0
									}
								}
							}
						}
						JOINT LeftShoulder_virtual
						{
							OFFSET 0.000000 0.000000 0.000000
							CHANNELS 3 Xrotation Yrotation Zrotation
							JOINT LeftShoulder
							{
								OFFSET 15.263000 10.923401 -0.547700
								CHANNELS 3 Xrotation Yrotation Zrotation
								JOINT LeftArm
								{
									OFFSET 25.438599 -2.830597 -13.032500
									CHANNELS 3 Xrotation Yrotation Zrotation
									JOINT LeftForeArm
									{
										OFFSET 29.960503 0.000000 0.000000
										CHANNELS 3 Xrotation Yrotation Zrotation
										JOINT LeftHand
										{
											OFFSET 27.849251 0.000000 0.000000
											CHANNELS 3 Xrotation Yrotation Zrotation
											End Site
											{
												OFFSET 0 0 0
											}
										}
									}
								}
							}
						}
						JOINT RightShoulder_virtual
						{
							OFFSET 0.000000 0.000000 0.000000
							CHANNELS 3 Xrotation Yrotation Zrotation
							JOINT RightShoulder
							{
								OFFSET -15.263000 10.923401 -0.547700
								CHANNELS 3 Xrotation Yrotation Zrotation
								JOINT RightArm
								{
									OFFSET -25.438599 -2.830597 -13.032500
									CHANNELS 3 Xrotation Yrotation Zrotation
									JOINT RightForeArm
									{
										OFFSET -29.960503 0.000000 0.000000
										CHANNELS 3 Xrotation Yrotation Zrotation
										JOINT RightHand
										{
											OFFSET -27.849251 0.000000 0.000000
											CHANNELS 3 Xrotation Yrotation Zrotation
											End Site
											{
												OFFSET 0 0 0
											}
										}
									}
								}
							}
						}
					}
				}
			}
		}
	}
}
MOTION
Frames: 6
Frame Time: 0.03333333
-3.916314 83.274208 2.332626 0.000000 0.000000 0.000000 3.004775 -58.203218 6.441629 -38.300760 6.320428 29.635409 47.031187 -9.811636 -10.643178 -10.044994 -1.887318 -11.913065 0.000000 0.000000 0.000000 3.004775 -58.203218 6.441629 -34.547797 -3.821298 -30.691800 55.034748 4.454003 -7.825886 -22.925132 0.235623 25.815673 0.000000 0.000000 0.000000 3.004775 -58.203218 6.441629 0.000000 0.000001 0.000000 11.191376 0.081150 -2.660804 8.434584 0.027672 -5.592322 0.000000 0.000000 0.000000 8.457028 0.027908 -5.591869 -3.775786 5.323446 1.581309 0.000000 0.000000 0.000000 8.457028 0.027908 -5.591869 -6.221633 -11.503840 -4.023759 -23.061625 9.569258 -36.639822 0.046367 -43.170959 -0.010989 0.000000 0.000000 0.000000 8.457028 0.027908 -5.591869 -5.488229 10.658247 2.466468 -41.473879 -26.755588 30.079030 -155.044256 68.137072 156.691206 0.000000 0.000000 0.000000 
-4.936816 83.373772 2.477394 0.000000 0.000000 0.000000 6.505315 -60.058475 10.626201 -36.561965 7.348069 28.453036 45.544746 -7.743794 -10.033693 -11.058641 -1.099971 -13.441910 0.000000 0.000000 0.000000 6.505315 -60.058475 10.626201 -36.407371 -1.777723 -30.747179 55.510057 4.701971 -7.771916 -23.281741 0.565301 25.630975 0.000000 0.000000 0.000000 6.505315 -60.058475 10.626201 0.000000 -0.000001 0.000000 9.970807 0.040612 -3.214757 5.412857 1.778453 -6.941525 0.000000 0.000000 0.000000 6.233830 0.975659 -6.719547 -3.220903 4.844761 0.062835 0.000000 0.000000 0.000000 6.233830 0.975659 -6.719547 -6.702465 -14.957885 -4.571853 -18.021915 7.338827 -35.052555 -0.477859 -38.363311 -0.338793 0.000000 0.000000 0.000000 6.233830 0.975659 -6.719547 -5.596369 8.117647 2.079306 -42.075345 -29.071143 25.529891 -158.484199 63.364293 160.638468 0.000000 0.000000 0.000000 
-7.179020 83.899094 3.061966 0.000000 0.000000 0.000000 7.741714 -60.927104 12.121163 -32.885151 8.561985 28.344703 41.775042 -6.365108 -8.663064 -11.058272 -0.712258 -16.388749 0.000000 0.000000 0.000000 7.741714 -60.927104 12.121163 -38.379755 1.184597 -29.230983 59.005390 5.501711 -6.902444 -20.762493 1.819723 23.605764 0.000000 0.000000 0.000000 7.741714 -60.927104 12.121163 0.000000 0.000000 0.000000 8.970364 -0.003262 -3.601473 0.891126 1.532505 -9.429975 0.000000 0.000000 0.000000 1.674382 0.804719 -9.252079 -2.539910 4.560356 -1.564068 0.000000 0.000000 0.000000 1.674382 0.804719 -9.252079 -6.911204 -16.614266 -3.923256 -17.257281 10.437849 -33.348453 0.390004 -39.556972 0.205989 0.000000 0.000000 0.000000 1.674382 0.804719 -9.252079 -5.775050 5.551424 1.625785 -38.882477 -33.575728 26.148163 -161.829680 57.144685 164.636150 0.000000 0.000000 0.000000 
-11.146018 83.206200 3.020523 0.000000 0.000000 0.000000 7.467218 -58.387770 12.017931 -31.132351 8.833773 30.146085 38.943618 -7.541183 -7.699239 -11.054691 -1.922183 -19.644683 0.000000 0.000000 0.000000 7.467218 -58.387770 12.017931 -45.401131 9.071833 -29.149205 68.140440 11.268039 -5.654029 -6.178069 4.208086 28.039801 0.000000 0.000000 0.000000 7.467218 -58.387770 12.017931 0.000000 0.000001 0.000000 8.374616 -0.108859 -4.036118 -1.833102 1.182719 -11.772231 0.000000 0.000000 0.000000 -1.526813 0.087517 -11.605886 -2.204266 4.419263 -1.921652 0.000000 0.000000 0.000000 -1.526813 0.087517 -11.605886 -6.653873 -14.959631 -0.689956 -19.522825 9.032889 -32.675242 2.656760 -46.553026 1.886270 0.000000 0.000000 0.000000 -1.526813 0.087517 -11.605886 -6.030924 4.173770 0.513737 -40.404855 -38.913900 24.896069 -163.945796 52.732213 167.151832 0.000000 0.000000 0.000000 
-16.338192 82.176514 2.885632 0.000000 0.000000 0.000000 6.275068 -53.474545 10.745569 -30.430135 8.763467 32.507780 37.078000 -11.503836 -7.622878 -12.210140 -3.449882 -21.352548 0.000000 0.000000 0.000000 6.275068 -53.474545 10.745569 -47.712153 15.492423 -30.560162 68.695167 18.172205 -5.707160 13.108315 8.633337 39.448775 0.000000 0.000000 0.000000 6.275068 -53.474545 10.745569 0.000000 0.000000 0.000000 7.990211 -0.359618 -4.262479 -2.751771 -0.097369 -13.141404 0.000000 0.000000 0.000000 -2.781011 -1.300072 -12.982324 -1.884656 4.398431 -1.792548 0.000000 0.000000 0.000000 -2.781011 -1.300072 -12.982324 -6.680641 -11.924400 2.218038 -20.517164 8.633657 -31.762046 -1.226243 -58.081306 -1.084689 0.000000 0.000000 0.000000 -2.781012 -1.300072 -12.982324 -6.323337 3.423917 -0.902434 -45.877998 -42.504575 20.709781 -165.508598 49.265383 168.972200 0.000000 0.000000 0.000000 
-21.587410 81.138336 3.124176 0.000000 0.000000 0.000000 7.560112 -51.107867 12.257342 -27.758544 9.732272 33.641957 33.298511 -13.462567 -6.717998 -13.612804 -3.038622 -24.530852 0.000000 0.000000 0.000000 7.560112 -51.107867 12.257342 -52.052202 20.808777 -30.785046 73.116909 20.576466 -6.180690 15.291614 9.118012 40.220747 0.000000 0.000000 0.000000 7.560112 -51.107867 12.257342 0.000000 -0.000002 0.000000 8.060065 -0.461741 -3.892817 -2.628028 -1.143585 -13.585928 0.000000 0.000000 0.000000 -2.658048 -2.261042 -13.417758 -1.897452 4.145923 -1.995339 0.000000 0.000000 0.000000 -2.658048 -2.261042 -13.417758 -7.010444 -7.758840 6.082063 -22.464733 11.561099 -32.135668 0.090275 -67.442763 0.038938 0.000000 0.000000 0.000000 -2.658048 -2.261042 -13.417758 -6.606305 4.275087 -2.772681 -55.680669 -40.663132 12.455857 -166.525749 47.451595 170.044649 0.000000 0.000000 0.000000 
